<svg width="32" height="32" viewBox="0 0 32 32" fill="none" xmlns="http://www.w3.org/2000/svg">
<path d="M4.00033 6.6665C4.00033 5.8665 4.53366 5.33317 5.33366 5.33317H6.66699C7.46699 5.33317 8.00033 5.8665 8.00033 6.6665C8.00033 7.4665 7.46699 7.99984 6.66699 7.99984H5.33366C4.53366 7.99984 4.00033 7.4665 4.00033 6.6665ZM5.33366 17.3332C5.33366 16.5332 5.86699 15.9998 6.66699 15.9998H8.00033C8.80033 15.9998 9.33366 16.5332 9.33366 17.3332C9.33366 18.1332 8.80033 18.6665 8.00033 18.6665H6.66699C5.86699 18.6665 5.33366 18.1332 5.33366 17.3332ZM5.33366 21.3332C4.53366 21.3332 4.00033 21.8665 4.00033 22.6665C4.00033 23.4665 4.53366 23.9998 5.33366 23.9998H12.0003C12.8003 23.9998 13.3337 23.4665 13.3337 22.6665C13.3337 21.8665 12.8003 21.3332 12.0003 21.3332H5.33366ZM24.0003 6.6665C24.0003 5.8665 24.5337 5.33317 25.3337 5.33317H28.0003C28.8003 5.33317 29.3337 5.8665 29.3337 6.6665C29.3337 7.4665 28.8003 7.99984 28.0003 7.99984H25.3337C24.5337 7.99984 24.0003 7.4665 24.0003 6.6665ZM9.33366 26.6665C8.53366 26.6665 8.00033 27.1998 8.00033 27.9998C8.00033 28.7998 8.53366 29.3332 9.33366 29.3332H14.667C15.467 29.3332 16.0003 28.7998 16.0003 27.9998C16.0003 27.1998 15.467 26.6665 14.667 26.6665H9.33366ZM4.00033 13.3332C3.20033 13.3332 2.66699 12.7998 2.66699 11.9998C2.66699 11.1998 3.20033 10.6665 4.00033 10.6665H16.0003C17.467 10.6665 18.667 9.4665 18.667 7.99984C18.667 6.53317 17.467 5.33317 16.0003 5.33317C15.2003 5.33317 14.5337 5.59984 14.1337 6.13317C13.6003 6.6665 12.8003 6.6665 12.267 6.13317C11.7337 5.59984 11.7337 4.79984 12.267 4.2665C13.2003 3.33317 14.5337 2.6665 16.0003 2.6665C18.9337 2.6665 21.3337 5.0665 21.3337 7.99984C21.3337 10.9332 18.9337 13.3332 16.0003 13.3332H4.00033ZM25.3337 15.9998C26.1337 15.9998 26.667 15.4665 26.667 14.6665C26.667 13.8665 26.1337 13.3332 25.3337 13.3332C24.9337 13.3332 24.667 13.4665 24.4003 13.7332C23.867 14.2665 23.067 14.2665 22.5337 13.7332C22.0003 13.1998 22.0003 12.3998 22.5337 11.8665C23.2003 11.0665 24.267 10.6665 25.3337 10.6665C27.6003 10.6665 29.3337 12.3998 29.3337 14.6665C29.3337 16.9332 27.6003 18.6665 25.3337 18.6665H13.3337C12.5337 18.6665 12.0003 18.1332 12.0003 17.3332C12.0003 16.5332 12.5337 15.9998 13.3337 15.9998H25.3337ZM24.0003 23.9998H17.3337C16.5337 23.9998 16.0003 23.4665 16.0003 22.6665C16.0003 21.8665 16.5337 21.3332 17.3337 21.3332H24.0003C26.267 21.3332 28.0003 23.0665 28.0003 25.3332C28.0003 27.5998 26.267 29.3332 24.0003 29.3332C22.9337 29.3332 21.867 28.9332 21.2003 28.1332C20.667 27.5998 20.667 26.7998 21.2003 26.2665C21.7337 25.7332 22.5337 25.7332 23.067 26.2665C23.3337 26.5332 23.6003 26.6665 24.0003 26.6665C24.8003 26.6665 25.3337 26.1332 25.3337 25.3332C25.3337 24.5332 24.8003 23.9998 24.0003 23.9998Z" fill="#DECDA7"/>
</svg>
