<svg width="24" height="24" viewBox="0 0 24 24" fill="none" xmlns="http://www.w3.org/2000/svg">
<path d="M23.6889 12.3888L12.8899 0.380076C12.4352 -0.126692 11.5617 -0.126692 11.1069 0.380076L0.307924 12.3888C0.152755 12.5614 0.0509043 12.7753 0.0147017 13.0046C-0.021501 13.2339 0.00949688 13.4689 0.103943 13.6809C0.295925 14.1144 0.725485 14.393 1.19944 14.393H3.59921V22.7991C3.59921 23.1176 3.72563 23.4231 3.95065 23.6483C4.17568 23.8735 4.48087 24 4.7991 24H8.39876C8.71699 24 9.02219 23.8735 9.24721 23.6483C9.47223 23.4231 9.59865 23.1176 9.59865 22.7991V17.9956H14.3982V22.7991C14.3982 23.1176 14.5246 23.4231 14.7496 23.6483C14.9747 23.8735 15.2799 24 15.5981 24H19.1977C19.516 24 19.8212 23.8735 20.0462 23.6483C20.2712 23.4231 20.3976 23.1176 20.3976 22.7991V14.393H22.7974C23.0298 14.394 23.2574 14.3273 23.4526 14.2011C23.6477 14.0748 23.802 13.8945 23.8965 13.682C23.991 13.4695 24.0217 13.2341 23.9848 13.0045C23.948 12.7749 23.8452 12.5609 23.6889 12.3888Z" fill="#FFFDE5"/>
</svg>
