<svg width="32" height="32" viewBox="0 0 32 32" fill="none" xmlns="http://www.w3.org/2000/svg">
<path fill-rule="evenodd" clip-rule="evenodd" d="M1.8752 1.87543C-1.90735e-07 3.74903 0 6.76663 0 12.8002V19.2002C0 25.2338 -1.90735e-07 28.2514 1.8752 30.125C3.7504 31.9986 6.7664 32.0002 12.8 32.0002H19.2C25.2336 32.0002 28.2512 32.0002 30.1248 30.125C31.9984 28.2498 32 25.2338 32 19.2002V12.8002C32 8.25623 32 5.42423 31.2 3.50263V24.0002C30.4393 24.0003 29.6861 23.8506 28.9833 23.5596C28.2805 23.2686 27.6419 22.842 27.104 22.3042L25.9008 21.101C24.7456 19.9458 24.1696 19.3698 23.5152 19.1266C22.7958 18.8592 22.0042 18.8592 21.2848 19.1266C20.6304 19.3698 20.0528 19.9458 18.9008 21.101L18.7184 21.2818C17.7824 22.2178 17.3136 22.6866 16.816 22.773C16.4295 22.8411 16.0315 22.7648 15.6976 22.5586C15.2688 22.293 15.008 21.6834 14.4848 20.4658L14.4 20.2674C13.2 17.4674 12.6016 16.069 11.5552 15.5442C11.0283 15.28 10.4386 15.1665 9.8512 15.2162C8.6848 15.3154 7.6096 16.3922 5.456 18.5442L2.4 21.6002V1.41943C2.2144 1.55703 2.03947 1.70903 1.8752 1.87543Z" fill="#D0DBFF"/>
<mask id="mask0_50_330" style="mask-type:luminance" maskUnits="userSpaceOnUse" x="0" y="0" width="32" height="32">
<path d="M0 12.8C0 6.7664 -1.90735e-07 3.7488 1.8752 1.8752C3.7504 0.00159988 6.7664 0 12.8 0H19.2C25.2336 0 28.2512 -1.90735e-07 30.1248 1.8752C31.9984 3.7504 32 6.7664 32 12.8V19.2C32 25.2336 32 28.2512 30.1248 30.1248C28.2496 31.9984 25.2336 32 19.2 32H12.8C6.7664 32 3.7488 32 1.8752 30.1248C0.00159988 28.2496 0 25.2336 0 19.2V12.8Z" fill="white"/>
</mask>
<g mask="url(#mask0_50_330)">
<path d="M0 12.8C0 6.7664 -1.90735e-07 3.7488 1.8752 1.8752C3.7504 0.00159988 6.7664 0 12.8 0H19.2C25.2336 0 28.2512 -1.90735e-07 30.1248 1.8752C31.9984 3.7504 32 6.7664 32 12.8V19.2C32 25.2336 32 28.2512 30.1248 30.1248C28.2496 31.9984 25.2336 32 19.2 32H12.8C6.7664 32 3.7488 32 1.8752 30.1248C0.00159988 28.2496 0 25.2336 0 19.2V12.8Z" stroke="#D0DBFF" stroke-width="4"/>
</g>
<path d="M20.8001 14.4C22.5674 14.4 24.0001 12.9673 24.0001 11.2C24.0001 9.43269 22.5674 8 20.8001 8C19.0328 8 17.6001 9.43269 17.6001 11.2C17.6001 12.9673 19.0328 14.4 20.8001 14.4Z" fill="#D0DBFF"/>
</svg>
