<svg width="24" height="22" viewBox="0 0 24 22" fill="none" xmlns="http://www.w3.org/2000/svg">
<path d="M14.0002 12.4405C14.3486 12.0586 14.5785 11.5836 14.6619 11.0733C14.7453 10.5631 14.6786 10.0396 14.4698 9.56657C14.2611 9.09357 13.9193 8.69145 13.4862 8.40915C13.053 8.12686 12.5472 7.97656 12.0302 7.97656C11.5131 7.97656 11.0073 8.12686 10.5741 8.40915C10.141 8.69145 9.79925 9.09357 9.59051 9.56657C9.38176 10.0396 9.31502 10.5631 9.39841 11.0733C9.48179 11.5836 9.7117 12.0586 10.0602 12.4405C9.24947 12.8111 8.56186 13.406 8.07865 14.155C7.59545 14.9041 7.33687 15.7758 7.3335 16.6672C7.33568 16.9288 7.36022 17.1897 7.40683 17.4472C7.43382 17.6037 7.5158 17.7455 7.63802 17.8469C7.76025 17.9483 7.91468 18.0028 8.0735 18.0005H8.18683C8.27368 17.986 8.35679 17.9544 8.43137 17.9076C8.50595 17.8608 8.57052 17.7997 8.62135 17.7278C8.67217 17.6559 8.70825 17.5746 8.7275 17.4887C8.74675 17.4028 8.74879 17.3139 8.7335 17.2272C8.64102 16.7668 8.64687 16.292 8.75067 15.834C8.85447 15.376 9.05387 14.9451 9.33582 14.5695C9.61776 14.194 9.97588 13.8822 10.3867 13.6547C10.7975 13.4272 11.2518 13.2891 11.7197 13.2494C12.1877 13.2097 12.6587 13.2693 13.102 13.4243C13.5453 13.5793 13.9508 13.8263 14.292 14.149C14.6332 14.4717 14.9024 14.8628 15.0818 15.2968C15.2613 15.7308 15.3471 16.1978 15.3335 16.6672C15.3332 16.8548 15.3176 17.0421 15.2868 17.2272C15.2724 17.3147 15.2753 17.4043 15.2955 17.4907C15.3156 17.5771 15.3526 17.6587 15.4043 17.7308C15.5087 17.8764 15.6667 17.9747 15.8435 18.0038C16.0203 18.033 16.2015 17.9908 16.3471 17.8864C16.4928 17.782 16.591 17.624 16.6202 17.4472C16.791 16.441 16.6273 15.4065 16.1541 14.5022C15.6809 13.5979 14.9243 12.8737 14.0002 12.4405ZM12.0002 9.33384C12.2639 9.33384 12.5217 9.41204 12.7409 9.55855C12.9602 9.70506 13.1311 9.91329 13.232 10.1569C13.3329 10.4006 13.3593 10.6687 13.3079 10.9273C13.2564 11.1859 13.1294 11.4235 12.943 11.61C12.7565 11.7965 12.5189 11.9234 12.2603 11.9749C12.0016 12.0263 11.7336 11.9999 11.4899 11.899C11.2463 11.7981 11.038 11.6272 10.8915 11.4079C10.745 11.1887 10.6668 10.9309 10.6668 10.6672C10.6668 10.3136 10.8073 9.97441 11.0574 9.72437C11.3074 9.47432 11.6465 9.33384 12.0002 9.33384Z" fill="#FFFDE5"/>
<path d="M3.32682 3.99349C3.69501 3.99349 3.99349 3.69501 3.99349 3.32682C3.99349 2.95863 3.69501 2.66016 3.32682 2.66016C2.95863 2.66016 2.66016 2.95863 2.66016 3.32682C2.66016 3.69501 2.95863 3.99349 3.32682 3.99349Z" fill="#FFFDE5"/>
<path d="M5.99333 3.99349C6.36152 3.99349 6.65999 3.69501 6.65999 3.32682C6.65999 2.95863 6.36152 2.66016 5.99333 2.66016C5.62514 2.66016 5.32666 2.95863 5.32666 3.32682C5.32666 3.69501 5.62514 3.99349 5.99333 3.99349Z" fill="#FFFDE5"/>
<path d="M8.65983 3.99349C9.02802 3.99349 9.3265 3.69501 9.3265 3.32682C9.3265 2.95863 9.02802 2.66016 8.65983 2.66016C8.29164 2.66016 7.99316 2.95863 7.99316 3.32682C7.99316 3.69501 8.29164 3.99349 8.65983 3.99349Z" fill="#FFFDE5"/>
<path d="M21.3333 0H2.66667C1.95942 0 1.28115 0.280951 0.781048 0.781048C0.280951 1.28115 0 1.95942 0 2.66667V18.6667C0 19.3739 0.280951 20.0522 0.781048 20.5523C1.28115 21.0524 1.95942 21.3333 2.66667 21.3333H21.3333C22.0406 21.3333 22.7189 21.0524 23.219 20.5523C23.719 20.0522 24 19.3739 24 18.6667V2.66667C24 1.95942 23.719 1.28115 23.219 0.781048C22.7189 0.280951 22.0406 0 21.3333 0ZM21.3333 20H2.66667C2.31304 20 1.97391 19.8595 1.72386 19.6095C1.47381 19.3594 1.33333 19.0203 1.33333 18.6667V2.66667C1.33333 2.31304 1.47381 1.97391 1.72386 1.72386C1.97391 1.47381 2.31304 1.33333 2.66667 1.33333H21.3333C21.687 1.33333 22.0261 1.47381 22.2761 1.72386C22.5262 1.97391 22.6667 2.31304 22.6667 2.66667V5.33333H4C3.82319 5.33333 3.65362 5.40357 3.5286 5.52859C3.40357 5.65362 3.33333 5.82319 3.33333 6C3.33333 6.17681 3.40357 6.34638 3.5286 6.47141C3.65362 6.59643 3.82319 6.66667 4 6.66667H22.6667V18.6667C22.6667 19.0203 22.5262 19.3594 22.2761 19.6095C22.0261 19.8595 21.687 20 21.3333 20Z" fill="#FFFDE5"/>
<path d="M12.6667 4.00033H20.6667C20.8435 4.00033 21.013 3.93009 21.1381 3.80506C21.2631 3.68004 21.3333 3.51047 21.3333 3.33366C21.3333 3.15685 21.2631 2.98728 21.1381 2.86225C21.013 2.73723 20.8435 2.66699 20.6667 2.66699H12.6667C12.4899 2.66699 12.3203 2.73723 12.1953 2.86225C12.0702 2.98728 12 3.15685 12 3.33366C12 3.51047 12.0702 3.68004 12.1953 3.80506C12.3203 3.93009 12.4899 4.00033 12.6667 4.00033Z" fill="#FFFDE5"/>
</svg>
