<svg width="32" height="32" viewBox="0 0 32 32" fill="none" xmlns="http://www.w3.org/2000/svg">
<path d="M18.421 28.8162C18.2583 28.9086 18.0899 28.9233 17.9157 28.8602C17.7415 28.7971 17.609 28.6846 17.5183 28.5228L15.261 24.0108C15.1686 23.8482 15.1539 23.6802 15.217 23.5068C15.2801 23.3335 15.3926 23.2002 15.5543 23.1068C15.7161 23.0135 15.8881 23.0033 16.0703 23.0762C16.2526 23.1491 16.3899 23.2655 16.4823 23.4255L18.7383 27.9135C18.8308 28.0753 18.8415 28.2433 18.7703 28.4175C18.6992 28.5908 18.5828 28.7237 18.421 28.8162ZM26.4463 28.8162C26.2837 28.9086 26.1157 28.9233 25.9423 28.8602C25.769 28.7971 25.6357 28.6846 25.5423 28.5228L23.2877 24.0108C23.1952 23.8482 23.1801 23.6802 23.2423 23.5068C23.3046 23.3335 23.417 23.2002 23.5797 23.1068C23.7423 23.0135 23.9143 23.0033 24.0957 23.0762C24.277 23.1491 24.4143 23.2655 24.5077 23.4255L26.7637 27.9135C26.8561 28.0753 26.8668 28.2433 26.7957 28.4175C26.7246 28.5908 26.6081 28.7237 26.4463 28.8162ZM10.4197 28.8162C10.2579 28.9086 10.0859 28.9233 9.90367 28.8602C9.72145 28.7971 9.58412 28.6846 9.49167 28.5228L7.23567 24.0108C7.14323 23.8482 7.13256 23.6802 7.20367 23.5068C7.27479 23.3335 7.39167 23.2002 7.55434 23.1068C7.71701 23.0135 7.88456 23.0033 8.05701 23.0762C8.22945 23.1491 8.36279 23.2655 8.45701 23.4255L10.713 27.9135C10.8055 28.0753 10.8201 28.2433 10.757 28.4175C10.6939 28.5917 10.5806 28.7246 10.4197 28.8162ZM9.99967 20.6668C8.14812 20.6668 6.57434 20.0184 5.27834 18.7215C3.98145 17.4255 3.33301 15.8517 3.33301 14.0002C3.33301 12.2757 3.91434 10.7842 5.07701 9.5255C6.23967 8.26683 7.69523 7.54105 9.44368 7.34816C10.1032 6.09927 11.0068 5.11794 12.1543 4.40416C13.3028 3.69038 14.5846 3.3335 15.9997 3.3335C17.9143 3.3335 19.5592 3.96816 20.9343 5.2375C22.3095 6.50683 23.1099 8.08861 23.3357 9.98283C24.9712 10.0815 26.269 10.6504 27.229 11.6895C28.1872 12.7295 28.6663 13.9442 28.6663 15.3335C28.6663 16.8126 28.1472 18.0713 27.109 19.1095C26.0708 20.1477 24.8121 20.6668 23.333 20.6668H9.99967Z" fill="white"/>
</svg>
