<svg width="32" height="32" viewBox="0 0 32 32" fill="none" xmlns="http://www.w3.org/2000/svg">
<path d="M27.9925 19.5794L29.1956 18.9144L27.8656 16.5075L26.6625 17.1725C25.74 17.6829 24.9226 18.3637 24.2537 19.1787L18.75 16L24.2544 12.8212C24.9232 13.6363 25.7406 14.3171 26.6631 14.8275L27.8662 15.4925L29.1963 13.0856L27.9931 12.4206C27.51 12.1538 27.0692 11.8168 26.685 11.4206L30 9.50313L28.625 7.125L25.3125 9.03625C25.1605 8.5051 25.0884 7.95426 25.0987 7.40188L25.1244 6.02688L22.3744 5.97563L22.3487 7.35063C22.3293 8.40384 22.5094 9.45122 22.8794 10.4375L17.375 13.6181V7.26125C18.415 7.08925 19.4131 6.72173 20.3162 6.17812L21.4937 5.46875L20.0744 3.11313L18.8969 3.8225C18.4236 4.1071 17.9107 4.32003 17.375 4.45437V1H14.625V4.45437C14.0893 4.32003 13.5764 4.1071 13.1031 3.8225L11.9256 3.11313L10.5063 5.46875L11.6838 6.17812C12.5869 6.72173 13.585 7.08925 14.625 7.26125V13.6181L9.12062 10.4375C9.49179 9.4506 9.67269 8.40234 9.65375 7.34812L9.62813 5.97312L6.87813 6.02437L6.90375 7.39937C6.91406 7.95176 6.84202 8.5026 6.69 9.03375L3.375 7.125L2 9.50625L5.31563 11.4213C4.93142 11.8174 4.49058 12.1544 4.0075 12.4213L2.80437 13.0856L4.13438 15.4925L5.3375 14.8275C6.26005 14.3171 7.07741 13.6363 7.74625 12.8212L13.25 16L7.74563 19.1787C7.07678 18.3637 6.25942 17.6829 5.33687 17.1725L4.13438 16.5075L2.80437 18.9144L4.0075 19.5794C4.49058 19.8462 4.93142 20.1832 5.31563 20.5794L2 22.5L3.375 24.8813L6.69063 22.9669C6.84264 23.498 6.91469 24.0489 6.90438 24.6012L6.87875 25.9762L9.62875 26.0275L9.65438 24.6525C9.67319 23.598 9.49208 22.5496 9.12062 21.5625L14.625 18.3819V24.7388C13.585 24.9107 12.5869 25.2783 11.6838 25.8219L10.5063 26.5312L11.9256 28.8869L13.1031 28.1775C13.5764 27.8929 14.0893 27.68 14.625 27.5456V31H17.375V27.5456C17.9107 27.68 18.4236 27.8929 18.8969 28.1775L20.0744 28.8869L21.4937 26.5312L20.3162 25.8219C19.4131 25.2783 18.415 24.9107 17.375 24.7388V18.3819L22.8794 21.5625C22.5082 22.5494 22.3273 23.5977 22.3463 24.6519L22.3719 26.0269L25.1219 25.9756L25.0963 24.6006C25.0865 24.0473 25.1594 23.4956 25.3125 22.9638L28.625 24.8781L30 22.5L26.6875 20.5819C27.0706 20.1851 27.5104 19.8472 27.9925 19.5794Z" fill="#D0DBFF"/>
</svg>
