<svg width="32" height="32" viewBox="0 0 32 32" fill="none" xmlns="http://www.w3.org/2000/svg">
<path d="M14.6663 6.66683V1.3335H17.333V6.66683H14.6663ZM23.533 10.3335L21.6997 8.50016L25.433 4.66683L27.2997 6.56683L23.533 10.3335ZM25.333 17.3335V14.6668H30.6663V17.3335H25.333ZM14.6663 30.6668V25.3335H17.333V30.6668H14.6663ZM8.46634 10.2668L4.66634 6.56683L6.56634 4.70016L10.333 8.46683L8.46634 10.2668ZM25.3997 27.3335L21.6997 23.5002L23.4997 21.7002L27.2997 25.3668L25.3997 27.3335ZM1.33301 17.3335V14.6668H6.66634V17.3335H1.33301ZM6.56634 27.3335L4.69967 25.4335L8.43301 21.7002L9.39968 22.6002L10.3663 23.5335L6.56634 27.3335ZM15.9997 24.0002C13.7775 24.0002 11.8886 23.2224 10.333 21.6668C8.77745 20.1113 7.99967 18.2224 7.99967 16.0002C7.99967 13.7779 8.77745 11.8891 10.333 10.3335C11.8886 8.77794 13.7775 8.00016 15.9997 8.00016C18.2219 8.00016 20.1108 8.77794 21.6663 10.3335C23.2219 11.8891 23.9997 13.7779 23.9997 16.0002C23.9997 18.2224 23.2219 20.1113 21.6663 21.6668C20.1108 23.2224 18.2219 24.0002 15.9997 24.0002Z" fill="#FFA362"/>
</svg>
