<svg version="1.1" id="Layer_1" xmlns="http://www.w3.org/2000/svg" xmlns:xlink="http://www.w3.org/1999/xlink" x="0px" y="0px"
	 width="100%" viewBox="0 0 512 512" enable-background="new 0 0 512 512" xml:space="preserve">
<path fill="none" opacity="1.000000" stroke="none" 
	d="
M289.000000,513.000000 
	C192.690048,513.000000 96.880096,513.000000 1.035069,513.000000 
	C1.035069,342.398346 1.035069,171.796707 1.035069,1.097524 
	C171.559967,1.097524 342.120026,1.097524 512.840027,1.097524 
	C512.840027,171.666550 512.840027,342.333252 512.840027,513.000000 
	C438.463348,513.000000 363.981659,513.000000 289.000000,513.000000 
M454.860931,153.087814 
	C459.458466,152.374710 464.093231,151.841904 468.643738,150.901199 
	C473.910248,149.812469 476.199799,145.229889 473.999390,140.257767 
	C472.254852,136.315796 470.170715,132.523468 468.220154,128.673447 
	C465.510864,123.325943 464.314941,117.801041 465.688385,111.797195 
	C466.390198,108.729065 466.652100,105.558144 467.073120,102.428345 
	C468.366089,92.816261 465.148071,89.273911 455.810089,91.322273 
	C444.672455,93.765404 434.094666,93.874405 423.663330,87.086777 
	C413.169983,80.568848 407.449921,83.136322 406.399536,95.473022 
	C405.689819,103.809021 404.161713,112.002335 397.308350,117.995537 
	C395.059570,119.962097 393.063873,122.218788 390.960205,124.350449 
	C384.129791,131.271683 384.540314,136.139236 393.346252,139.887451 
	C405.161652,144.916641 413.342438,152.773468 418.315277,164.730484 
	C422.134888,173.914490 427.108734,174.378464 434.134155,167.353394 
	C439.991302,161.496582 445.411133,155.058411 454.860931,153.087814 
M279.361877,33.260986 
	C273.912323,35.936852 268.702240,39.412331 262.965790,41.130051 
	C248.970917,45.320656 248.516205,50.887058 256.745300,60.280922 
	C263.723724,68.247086 266.685059,77.403481 265.704224,87.909660 
	C265.565552,89.395096 265.680084,90.906143 265.707489,92.404785 
	C265.852386,100.335426 270.041748,103.814247 277.299805,100.701309 
	C290.004883,95.252182 302.329041,94.874977 314.825104,100.822128 
	C315.415436,101.103073 316.113586,101.149956 316.751617,101.339302 
	C320.394867,102.420448 323.273621,101.525894 325.789429,97.621689 
	C326.078369,95.327477 326.824463,92.983406 326.580566,90.747299 
	C325.200500,78.093475 329.021149,67.419914 337.195404,57.663960 
	C343.733307,49.860985 341.976990,44.749882 331.919342,42.304661 
	C319.902069,39.383011 310.660858,33.349846 304.621490,22.514120 
	C304.059235,21.505341 303.293121,20.600737 302.558838,19.698912 
	C298.495575,14.708686 293.658112,14.643062 289.682983,19.729610 
	C286.313599,24.041077 283.202271,28.554222 279.361877,33.260986 
M197.109650,95.913635 
	C178.131516,97.050911 160.100006,93.679718 142.814651,85.527466 
	C136.780212,82.681458 129.983444,81.451866 122.984726,79.316246 
	C122.984726,163.741562 122.984726,247.090271 122.984726,330.921906 
	C124.877998,330.921906 126.502617,330.921906 128.127228,330.921906 
	C145.117233,330.921906 162.107269,330.947174 179.097214,330.915710 
	C201.079117,330.875000 223.060959,330.789001 245.961029,330.889832 
	C302.602081,330.889832 359.243134,330.889832 416.212128,330.889832 
	C416.212128,329.941193 416.212128,328.130463 416.212128,326.319763 
	C416.212158,298.191925 416.234100,270.064056 416.201477,241.936279 
	C416.188354,230.625580 416.055542,219.315018 416.171082,207.083466 
	C416.183563,202.422180 416.030670,197.753006 416.252991,193.101746 
	C416.497711,187.981903 416.379059,183.377625 410.919281,180.505264 
	C409.061920,179.528122 407.501373,177.135849 406.749237,175.049820 
	C402.533875,163.358658 394.157684,156.573685 383.057983,151.282135 
	C369.579559,144.856583 367.467651,127.608749 377.645416,116.533882 
	C380.459656,113.471581 383.845459,110.871407 386.306335,107.565842 
	C388.638855,104.432724 390.102692,100.652885 392.444580,96.218094 
	C374.334869,96.218094 357.964661,96.218094 342.118317,96.218094 
	C340.719727,99.810150 339.895813,103.093765 338.262390,105.907433 
	C332.875458,115.186874 322.170837,119.408287 311.495026,115.226486 
	C300.982697,111.108727 291.194153,110.690117 280.788635,115.205299 
	C277.363312,116.691628 272.874512,116.909363 269.128174,116.250496 
	C258.175201,114.324188 252.387680,106.963043 250.455856,96.072746 
	C242.911133,96.072746 235.456329,96.072746 227.077103,95.904716 
	C217.396912,95.971237 207.716705,96.037766 197.109650,95.913635 
M416.196472,362.239990 
	C416.196198,360.573883 416.214813,358.907532 416.192566,357.241699 
	C416.087067,349.340729 412.797485,345.946533 404.927765,345.945679 
	C307.788910,345.935272 210.649323,345.734497 113.511513,346.060181 
	C64.847359,346.223328 29.100523,393.630432 41.426525,440.673065 
	C50.150520,473.968475 80.590004,497.846924 115.238564,497.935181 
	C184.551666,498.111725 253.865585,498.038177 323.178925,497.924652 
	C329.399109,497.914459 334.601501,498.550476 335.646240,505.730927 
	C342.583191,505.730927 349.035675,505.730927 355.395142,505.730927 
	C357.448334,499.349274 359.185822,498.018494 365.499817,498.006500 
	C378.829315,497.981201 392.169861,498.287964 405.480408,497.785065 
	C408.651611,497.665253 413.935364,495.390564 414.412384,493.251678 
	C415.688416,487.530670 415.995941,481.065796 414.580139,475.425690 
	C413.254028,470.142822 407.334198,470.688995 402.594421,470.690277 
	C309.620911,470.715179 216.647415,470.714783 123.673927,470.687500 
	C119.849518,470.686371 116.012489,470.517517 112.202888,470.182068 
	C83.062332,467.616394 62.705048,439.141571 69.672806,410.763092 
	C75.297485,387.854706 94.534729,373.247131 119.301048,373.235748 
	C187.781494,373.204346 256.261993,373.225037 324.742462,373.224731 
	C351.401520,373.224609 378.060638,373.246582 404.719635,373.208374 
	C412.380096,373.197388 415.425507,370.440857 416.196472,362.239990 
M364.432373,455.676727 
	C367.389771,455.676727 370.347168,455.676727 373.453735,455.676727 
	C373.453735,432.958832 373.453735,410.761414 373.453735,388.242340 
	C371.443848,388.242340 369.799072,388.242340 368.154266,388.242340 
	C285.489105,388.242310 202.823944,388.242065 120.158791,388.243774 
	C118.825752,388.243805 117.490097,388.217621 116.160065,388.287445 
	C92.900154,389.508453 77.609177,411.648956 85.185707,433.122498 
	C90.252190,447.482086 102.991516,455.666901 120.457024,455.670105 
	C201.455536,455.685028 282.454071,455.676697 364.432373,455.676727 
M107.691368,91.530556 
	C107.691368,87.779968 107.691368,84.029388 107.691368,80.262833 
	C81.498764,81.645226 55.803890,100.691048 45.013371,125.905777 
	C39.067307,139.800201 38.755005,154.348358 39.006763,169.054443 
	C39.141872,176.946396 38.265480,178.110443 31.230042,180.931259 
	C31.230042,187.358139 31.230042,193.802414 31.230042,200.162003 
	C38.020508,202.564041 39.029144,204.001541 39.029770,211.193909 
	C39.034237,262.514099 39.032127,313.834259 39.032112,365.154449 
	C39.032112,366.903839 39.032112,368.653259 39.032112,371.718628 
	C56.423553,347.218628 79.204315,334.162872 107.691322,331.034454 
	C107.691322,251.128342 107.691322,171.824249 107.691368,91.530556 
z"/>
<path fill="#BC9BDD" opacity="1.000000" stroke="none" 
	d="
M415.977234,208.004395 
	C416.055542,219.315018 416.188354,230.625580 416.201477,241.936279 
	C416.234100,270.064056 416.212158,298.191925 416.212128,326.319763 
	C416.212128,328.130463 416.212128,329.941193 416.212128,330.889832 
	C359.243134,330.889832 302.602081,330.889832 245.445694,330.474670 
	C229.937073,307.873444 219.746048,283.562866 213.004211,257.410736 
	C218.419907,247.723999 217.915726,238.991470 211.614624,231.974670 
	C210.407440,230.630386 209.194260,229.291489 208.158691,227.646301 
	C213.357239,222.942429 211.024185,217.059021 211.235931,211.806610 
	C211.534164,204.409271 209.275574,202.289062 202.031982,201.409027 
	C201.024872,187.434509 199.574524,173.923386 199.122879,160.378952 
	C198.408859,138.965805 198.364349,117.530319 198.036514,96.104286 
	C207.716705,96.037766 217.396912,95.971237 227.545258,96.399071 
	C229.396500,111.025764 235.509201,122.683678 247.076096,130.936218 
	C259.860718,140.057571 274.079437,141.433792 288.790344,136.463013 
	C293.557556,134.852173 297.802460,134.445877 302.632477,136.220901 
	C312.018341,139.670197 321.847260,140.559998 331.438690,137.526718 
	C337.315002,135.668350 342.723877,132.331940 348.607178,129.533478 
	C348.735168,130.292847 348.969879,131.058228 348.978088,131.826035 
	C349.166748,149.499496 357.035675,162.769440 372.470490,171.121048 
	C379.464478,174.905411 384.112610,179.897278 387.809265,187.024567 
	C393.622162,198.232101 403.313660,205.403931 415.977234,208.004395 
M358.863281,220.276138 
	C358.573853,218.639145 358.398102,216.972244 357.976562,215.369995 
	C355.262878,205.055054 345.402069,198.649750 334.287079,199.926285 
	C324.492706,201.051163 316.187927,210.153870 316.003632,219.966476 
	C315.914124,224.731720 318.449707,227.959229 322.650848,228.427612 
	C326.823517,228.892822 330.240662,226.287506 330.883423,221.592194 
	C331.432251,217.582855 333.053833,214.825165 337.342255,214.853165 
	C341.889496,214.882828 343.736694,217.754837 343.058594,222.165131 
	C340.158752,223.388794 337.088104,224.318054 334.387543,225.885101 
	C319.695068,234.410721 317.978485,250.805969 330.488007,262.024628 
	C342.530731,272.824677 364.640106,272.463928 376.311523,261.276917 
	C387.496033,250.556549 386.314270,235.305695 373.219391,226.966843 
	C368.973999,224.263351 363.818604,222.988846 358.863281,220.276138 
M253.211029,213.951248 
	C249.427582,213.575027 246.590897,215.119720 245.257736,218.611694 
	C243.936340,222.072891 245.223969,224.977097 247.815109,227.610413 
	C259.710083,239.698914 279.596375,239.680649 291.200195,227.375900 
	C292.403656,226.099731 293.538696,224.445145 293.930817,222.783340 
	C294.734863,219.375702 293.469482,216.481995 290.285797,214.806839 
	C286.714539,212.927765 283.686279,213.978531 280.785828,216.625992 
	C273.349274,223.413879 265.656555,223.335510 258.124878,216.718185 
	C256.907227,215.648392 255.379883,214.931061 253.211029,213.951248 
z"/>
<path fill="#4677D3" opacity="1.000000" stroke="none" 
	d="
M416.193420,362.691345 
	C415.425507,370.440857 412.380096,373.197388 404.719635,373.208374 
	C378.060638,373.246582 351.401520,373.224609 324.742462,373.224731 
	C256.261993,373.225037 187.781494,373.204346 119.301048,373.235748 
	C94.534729,373.247131 75.297485,387.854706 69.672806,410.763092 
	C62.705048,439.141571 83.062332,467.616394 112.202888,470.182068 
	C116.012489,470.517517 119.849518,470.686371 123.673927,470.687500 
	C216.647415,470.714783 309.620911,470.715179 402.594421,470.690277 
	C407.334198,470.688995 413.254028,470.142822 414.580139,475.425690 
	C415.995941,481.065796 415.688416,487.530670 414.412384,493.251678 
	C413.935364,495.390564 408.651611,497.665253 405.480408,497.785065 
	C392.169861,498.287964 378.829315,497.981201 365.499817,498.006500 
	C359.185822,498.018494 357.448334,499.349274 355.395142,505.730927 
	C349.035675,505.730927 342.583191,505.730927 335.646240,505.730927 
	C334.601501,498.550476 329.399109,497.914459 323.178925,497.924652 
	C253.865585,498.038177 184.551666,498.111725 115.238564,497.935181 
	C80.590004,497.846924 50.150520,473.968475 41.426525,440.673065 
	C29.100523,393.630432 64.847359,346.223328 113.511513,346.060181 
	C210.649323,345.734497 307.788910,345.935272 404.927765,345.945679 
	C412.797485,345.946533 416.087067,349.340729 416.192566,357.241699 
	C416.214813,358.907532 416.196198,360.573883 416.193420,362.691345 
z"/>
<path fill="#D1D1FC" opacity="1.000000" stroke="none" 
	d="
M363.942474,455.676697 
	C282.454071,455.676697 201.455536,455.685028 120.457024,455.670105 
	C102.991516,455.666901 90.252190,447.482086 85.185707,433.122498 
	C77.609177,411.648956 92.900154,389.508453 116.160065,388.287445 
	C117.490097,388.217621 118.825752,388.243805 120.158791,388.243774 
	C202.823944,388.242065 285.489105,388.242310 368.154266,388.242340 
	C369.799072,388.242340 371.443848,388.242340 373.453735,388.242340 
	C373.453735,410.761414 373.453735,432.958832 373.453735,455.676727 
	C370.347168,455.676727 367.389771,455.676727 363.942474,455.676697 
z"/>
<path fill="#918BD8" opacity="1.000000" stroke="none" 
	d="
M197.573090,96.008957 
	C198.364349,117.530319 198.408859,138.965805 199.122879,160.378952 
	C199.574524,173.923386 201.024872,187.434509 201.727081,201.587662 
	C197.567322,203.902344 196.204086,207.014938 196.231812,211.034958 
	C196.256989,214.687698 196.114944,218.341583 195.623566,221.968781 
	C188.779312,221.975800 182.158463,221.013916 175.979462,222.253906 
	C163.934525,224.671082 155.328033,234.622696 155.042053,244.693832 
	C154.747894,255.052856 162.486969,264.389648 174.781998,268.104919 
	C189.596970,272.581696 202.296997,268.851898 212.942978,257.753510 
	C219.746048,283.562866 229.937073,307.873444 244.986588,330.391052 
	C223.060959,330.789001 201.079117,330.875000 179.097214,330.915710 
	C162.107269,330.947174 145.117233,330.921906 128.127228,330.921906 
	C126.502617,330.921906 124.877998,330.921906 122.984726,330.921906 
	C122.984726,247.090271 122.984726,163.741562 122.984726,79.316246 
	C129.983444,81.451866 136.780212,82.681458 142.814651,85.527466 
	C160.100006,93.679718 178.131516,97.050911 197.573090,96.008957 
z"/>
<path fill="#F5E768" opacity="1.000000" stroke="none" 
	d="
M107.691345,92.025360 
	C107.691322,171.824249 107.691322,251.128342 107.691322,331.034454 
	C79.204315,334.162872 56.423553,347.218628 39.032112,371.718628 
	C39.032112,368.653259 39.032112,366.903839 39.032112,365.154449 
	C39.032127,313.834259 39.034237,262.514099 39.029770,211.193909 
	C39.029144,204.001541 38.020508,202.564041 31.230042,200.162003 
	C31.230042,193.802414 31.230042,187.358139 31.230042,180.931259 
	C38.265480,178.110443 39.141872,176.946396 39.006763,169.054443 
	C38.755005,154.348358 39.067307,139.800201 45.013371,125.905777 
	C55.803890,100.691048 81.498764,81.645226 107.691368,80.262833 
	C107.691368,84.029388 107.691368,87.779968 107.691345,92.025360 
z"/>
<path fill="#908AD7" opacity="1.000000" stroke="none" 
	d="
M416.074158,207.543930 
	C403.313660,205.403931 393.622162,198.232101 387.809265,187.024567 
	C384.112610,179.897278 379.464478,174.905411 372.470490,171.121048 
	C357.035675,162.769440 349.166748,149.499496 348.978088,131.826035 
	C348.969879,131.058228 348.735168,130.292847 348.607178,129.533478 
	C342.723877,132.331940 337.315002,135.668350 331.438690,137.526718 
	C321.847260,140.559998 312.018341,139.670197 302.632477,136.220901 
	C297.802460,134.445877 293.557556,134.852173 288.790344,136.463013 
	C274.079437,141.433792 259.860718,140.057571 247.076096,130.936218 
	C235.509201,122.683678 229.396500,111.025764 228.007446,96.483086 
	C235.456329,96.072746 242.911133,96.072746 250.455856,96.072746 
	C252.387680,106.963043 258.175201,114.324188 269.128174,116.250496 
	C272.874512,116.909363 277.363312,116.691628 280.788635,115.205299 
	C291.194153,110.690117 300.982697,111.108727 311.495026,115.226486 
	C322.170837,119.408287 332.875458,115.186874 338.262390,105.907433 
	C339.895813,103.093765 340.719727,99.810150 342.118317,96.218094 
	C357.964661,96.218094 374.334869,96.218094 392.444580,96.218094 
	C390.102692,100.652885 388.638855,104.432724 386.306335,107.565842 
	C383.845459,110.871407 380.459656,113.471581 377.645416,116.533882 
	C367.467651,127.608749 369.579559,144.856583 383.057983,151.282135 
	C394.157684,156.573685 402.533875,163.358658 406.749237,175.049820 
	C407.501373,177.135849 409.061920,179.528122 410.919281,180.505264 
	C416.379059,183.377625 416.497711,187.981903 416.252991,193.101746 
	C416.030670,197.753006 416.183563,202.422180 416.074158,207.543930 
z"/>
<path fill="#F5E768" opacity="1.000000" stroke="none" 
	d="
M279.976746,32.978123 
	C283.202271,28.554222 286.313599,24.041077 289.682983,19.729610 
	C293.658112,14.643062 298.495575,14.708686 302.558838,19.698912 
	C303.293121,20.600737 304.059235,21.505341 304.621490,22.514120 
	C310.660858,33.349846 319.902069,39.383011 331.919342,42.304661 
	C341.976990,44.749882 343.733307,49.860985 337.195404,57.663960 
	C329.021149,67.419914 325.200500,78.093475 326.580566,90.747299 
	C326.824463,92.983406 326.078369,95.327477 325.155426,97.718018 
	C313.589874,92.930321 305.109894,85.040863 298.156464,75.545677 
	C288.826202,62.804829 282.061035,48.864197 279.976746,32.978123 
z"/>
<path fill="#F3C755" opacity="1.000000" stroke="none" 
	d="
M454.011902,153.015594 
	C445.411133,155.058411 439.991302,161.496582 434.134155,167.353394 
	C427.108734,174.378464 422.134888,173.914490 418.315277,164.730484 
	C413.342438,152.773468 405.161652,144.916641 393.346252,139.887451 
	C384.540314,136.139236 384.129791,131.271683 390.960205,124.350449 
	C393.063873,122.218788 395.059570,119.962097 397.308350,117.995537 
	C404.161713,112.002335 405.689819,103.809021 406.399536,95.473022 
	C407.449921,83.136322 413.169983,80.568848 423.861816,87.817856 
	C424.038757,90.712532 424.076569,92.878616 423.985931,95.039307 
	C423.429413,108.301735 426.466003,120.641678 433.037476,132.204208 
	C438.115143,141.138306 445.786163,147.324295 454.011902,153.015594 
z"/>
<path fill="#F5E768" opacity="1.000000" stroke="none" 
	d="
M454.436401,153.051697 
	C445.786163,147.324295 438.115143,141.138306 433.037476,132.204208 
	C426.466003,120.641678 423.429413,108.301735 423.985931,95.039307 
	C424.076569,92.878616 424.038757,90.712532 424.096527,88.051743 
	C434.094666,93.874405 444.672455,93.765404 455.810089,91.322273 
	C465.148071,89.273911 468.366089,92.816261 467.073120,102.428345 
	C466.652100,105.558144 466.390198,108.729065 465.688385,111.797195 
	C464.314941,117.801041 465.510864,123.325943 468.220154,128.673447 
	C470.170715,132.523468 472.254852,136.315796 473.999390,140.257767 
	C476.199799,145.229889 473.910248,149.812469 468.643738,150.901199 
	C464.093231,151.841904 459.458466,152.374710 454.436401,153.051697 
z"/>
<path fill="#F3C855" opacity="1.000000" stroke="none" 
	d="
M279.669312,33.119553 
	C282.061035,48.864197 288.826202,62.804829 298.156464,75.545677 
	C305.109894,85.040863 313.589874,92.930321 324.853210,97.958420 
	C323.273621,101.525894 320.394867,102.420448 316.751617,101.339302 
	C316.113586,101.149956 315.415436,101.103073 314.825104,100.822128 
	C302.329041,94.874977 290.004883,95.252182 277.299805,100.701309 
	C270.041748,103.814247 265.852386,100.335426 265.707489,92.404785 
	C265.680084,90.906143 265.565552,89.395096 265.704224,87.909660 
	C266.685059,77.403481 263.723724,68.247086 256.745300,60.280922 
	C248.516205,50.887058 248.970917,45.320656 262.965790,41.130051 
	C268.702240,39.412331 273.912323,35.936852 279.669312,33.119553 
z"/>
<path fill="#FEFEFE" opacity="1.000000" stroke="none" 
	d="
M213.004211,257.410736 
	C202.296997,268.851898 189.596970,272.581696 174.781998,268.104919 
	C162.486969,264.389648 154.747894,255.052856 155.042053,244.693832 
	C155.328033,234.622696 163.934525,224.671082 175.979462,222.253906 
	C182.158463,221.013916 188.779312,221.975800 195.796234,222.272141 
	C198.953461,228.620956 201.484879,229.788956 207.983841,227.950119 
	C209.194260,229.291489 210.407440,230.630386 211.614624,231.974670 
	C217.915726,238.991470 218.419907,247.723999 213.004211,257.410736 
z"/>
<path fill="#FEFEFE" opacity="1.000000" stroke="none" 
	d="
M359.079468,221.060715 
	C363.818604,222.988846 368.973999,224.263351 373.219391,226.966843 
	C386.314270,235.305695 387.496033,250.556549 376.311523,261.276917 
	C364.640106,272.463928 342.530731,272.824677 330.488007,262.024628 
	C317.978485,250.805969 319.695068,234.410721 334.387543,225.885101 
	C337.088104,224.318054 340.158752,223.388794 343.521973,222.450394 
	C345.106445,226.558029 347.724091,228.587479 351.640045,228.431946 
	C356.201721,228.250778 358.104828,225.042252 359.079468,221.060715 
z"/>
<path fill="#030304" opacity="1.000000" stroke="none" 
	d="
M358.971375,220.668427 
	C358.104828,225.042252 356.201721,228.250778 351.640045,228.431946 
	C347.724091,228.587479 345.106445,226.558029 343.872314,222.390076 
	C343.736694,217.754837 341.889496,214.882828 337.342255,214.853165 
	C333.053833,214.825165 331.432251,217.582855 330.883423,221.592194 
	C330.240662,226.287506 326.823517,228.892822 322.650848,228.427612 
	C318.449707,227.959229 315.914124,224.731720 316.003632,219.966476 
	C316.187927,210.153870 324.492706,201.051163 334.287079,199.926285 
	C345.402069,198.649750 355.262878,205.055054 357.976562,215.369995 
	C358.398102,216.972244 358.573853,218.639145 358.971375,220.668427 
z"/>
<path fill="#040304" opacity="1.000000" stroke="none" 
	d="
M253.603378,214.001007 
	C255.379883,214.931061 256.907227,215.648392 258.124878,216.718185 
	C265.656555,223.335510 273.349274,223.413879 280.785828,216.625992 
	C283.686279,213.978531 286.714539,212.927765 290.285797,214.806839 
	C293.469482,216.481995 294.734863,219.375702 293.930817,222.783340 
	C293.538696,224.445145 292.403656,226.099731 291.200195,227.375900 
	C279.596375,239.680649 259.710083,239.698914 247.815109,227.610413 
	C245.223969,224.977097 243.936340,222.072891 245.257736,218.611694 
	C246.590897,215.119720 249.427582,213.575027 253.603378,214.001007 
z"/>
<path fill="#050507" opacity="1.000000" stroke="none" 
	d="
M208.158691,227.646301 
	C201.484879,229.788956 198.953461,228.620956 196.219315,222.298325 
	C196.114944,218.341583 196.256989,214.687698 196.231812,211.034958 
	C196.204086,207.014938 197.567322,203.902344 201.731781,202.036133 
	C209.275574,202.289062 211.534164,204.409271 211.235931,211.806610 
	C211.024185,217.059021 213.357239,222.942429 208.158691,227.646301 
z"/>
</svg>